<svg xmlns="http://www.w3.org/2000/svg" xmlns:xlink="http://www.w3.org/1999/xlink" width="1186.936" height="1270.077" viewBox="0 0 1186.936 1270.077">
  <defs>
    <clipPath id="clip-path">
      <rect id="Rectangle_44" data-name="Rectangle 44" width="1186.936" height="1270.077" fill="#322248"/>
    </clipPath>
  </defs>
  <g id="Group_11" data-name="Group 11" opacity="0.1">
    <g id="Group_10" data-name="Group 10" clip-path="url(#clip-path)">
      <path id="Path_40" data-name="Path 40" d="M64.359,858.38,48.02,847.422l239.089-356.59a156.128,156.128,0,1,1,224.619-37A156.944,156.944,0,0,1,394.689,522.5L244.655,746.266l-14.862,21.571.849.564c88.872,33.608,188,36.46,279.271,8.03A430.075,430.075,0,0,0,738.393,605.809c113-168.549,91.789-395.59-50.446-539.861l14.008-13.809C850.727,203.033,872.92,440.494,754.732,616.766A449.767,449.767,0,0,1,515.767,795.214c-95.822,29.848-199.938,26.722-293.172-8.82l-1.047-.4L202.287,773.09l26.1-37.883L383.8,503.428l4.931-.247a136.45,136.45,0,1,0-82.658-22.957l8.17,5.473Z" transform="translate(209.906 227.911)" fill="#322248"/>
      <path id="Path_41" data-name="Path 41" d="M379.946,386.379A595.555,595.555,0,0,1,72.433,300.912l-23.875-15.2L59.123,269.12,82.8,284.2A575.756,575.756,0,0,0,461.03,360.941c130-18.606,250.583-81.519,339.525-177.148l14.406,13.4c-91.993,98.916-216.7,163.989-351.143,183.228a591.96,591.96,0,0,1-83.872,5.962" transform="translate(212.257 803.399)" fill="#322248"/>
      <path id="Path_42" data-name="Path 42" d="M1091.412,834.43l-18-7.944c53.879-122.093,63.3-260.434,26.539-389.537a575.631,575.631,0,0,0-232.858-319.99C603.614-59.7,245.532,10.936,68.872,274.416a581.768,581.768,0,0,0-40.794,71.228L10.353,337.1a602.042,602.042,0,0,1,42.18-73.639C235.23-9.028,605.548-82.088,878.051,100.62A595.311,595.311,0,0,1,1118.87,431.562c38.023,133.507,28.269,276.58-27.458,402.868" transform="translate(45.255 -0.001)" fill="#322248"/>
      <path id="Path_43" data-name="Path 43" d="M186.549,752.529c-88.759-86.4-150.9-201.619-174.978-324.416C-13.223,301.631,2,175.3,55.588,62.768l17.763,8.46C-30.8,289.933,21.389,564.294,200.272,738.434Z" transform="translate(-0.001 274.372)" fill="#322248"/>
      <path id="Path_44" data-name="Path 44" d="M48.969,618.277,32.528,607.465,202.693,348.745c-55.42-72.758-71.093-162.409-44.071-253.28l18.858,5.613C151.275,189.2,166.83,272.554,222.476,342.111l4.464,5.575Z" transform="translate(142.187 417.298)" fill="#322248"/>
      <path id="Path_45" data-name="Path 45" d="M289.288,658.679l-1.166-19.637c89.087-5.291,168.651-50.785,218.292-124.816,86.82-129.489,52.106-305.466-77.383-392.287C323.218,51,182.234,59.734,86.2,143.2l-12.9-14.851C176.025,39.066,326.806,29.72,439.988,105.6a302.41,302.41,0,0,1,82.765,419.583c-53.089,79.182-138.185,127.84-233.465,133.5" transform="translate(320.388 238.03)" fill="#322248"/>
      <path id="Path_46" data-name="Path 46" d="M105.979,730.7a448.845,448.845,0,0,1-3.25-504.744C220.918,49.688,449.033-19.96,645.1,60.372L637.649,78.58c-187.477-76.8-405.57-10.211-518.58,158.338a429.158,429.158,0,0,0,3.11,482.62Z" transform="translate(116.556 118.968)" fill="#322248"/>
      <rect id="Rectangle_41" data-name="Rectangle 41" width="19.675" height="146.286" transform="matrix(0.557, -0.831, 0.831, 0.557, 956.689, 848.976)" fill="#322248"/>
      <rect id="Rectangle_42" data-name="Rectangle 42" width="292.574" height="19.672" transform="matrix(0.557, -0.831, 0.831, 0.557, 743.954, 344.46)" fill="#322248"/>
      <rect id="Rectangle_43" data-name="Rectangle 43" width="19.675" height="292.568" transform="matrix(0.557, -0.831, 0.831, 0.557, 223.852, 359.832)" fill="#322248"/>
    </g>
  </g>
</svg>
