<?xml version="1.0" encoding="UTF-8"?>
<svg id="b" data-name="Laag 2" xmlns="http://www.w3.org/2000/svg" viewBox="0 0 308.14 56.08">
  <defs>
    <style>
      .d {
        fill: #fff;
      }
    </style>
  </defs>
  <g id="c" data-name="Laag 1">
    <g>
      <g>
        <path class="d" d="m85.61,36.6c-.1,0-.61,0-1.54-.01-.93,0-2.12-.01-3.57-.01-.95,0-1.86,0-2.72.01-.86,0-1.59.01-2.18.01.02-1.4.03-2.82.04-4.25.01-1.44.02-2.85.02-4.23,0-2.31,0-4.07-.02-5.29-.02-1.21-.03-2.06-.04-2.55h2.01c-.02,1.05-.03,2.26-.04,3.63,0,1.37-.01,2.5-.01,3.38,0,2.14,0,3.92.01,5.35,0,1.43.01,2.19.01,2.27.33,0,.74,0,1.21,0,.47,0,.9,0,1.28,0,1.46,0,2.72,0,3.8-.02,1.08-.01,1.65-.02,1.73-.02v1.71Z"/>
        <path class="d" d="m102.66,35.98l-1.9.98c-.03-.09-.29-.7-.78-1.82s-1.13-2.57-1.93-4.33h-7.23c-.86,1.9-1.52,3.37-1.99,4.41-.47,1.04-.72,1.62-.77,1.75l-1.64-.89c.21-.42,1.08-2.29,2.62-5.59,1.53-3.31,3.13-6.78,4.78-10.43h1.59c1.63,3.64,3.23,7.18,4.8,10.59,1.57,3.42,2.39,5.19,2.45,5.33Zm-5.3-6.73c-.43-.99-.89-2.03-1.37-3.12-.48-1.08-.98-2.21-1.51-3.4h-.05c-.41.91-.9,2-1.48,3.31-.58,1.31-1.06,2.37-1.43,3.2h0s5.85.01,5.85.01h0Z"/>
        <path class="d" d="m117.23,31.82c0,.81-.21,1.55-.63,2.2-.42.65-1.03,1.18-1.82,1.6-.71.37-1.48.63-2.33.8-.85.17-1.81.25-2.9.25-.8,0-1.63-.01-2.48-.04-.85-.03-1.32-.05-1.42-.06.02-1.56.04-3.04.05-4.43,0-1.39.01-2.71.01-3.97,0-2.39-.01-4.29-.03-5.68-.02-1.4-.03-2.12-.03-2.18.11,0,.56-.03,1.35-.06.78-.03,1.55-.05,2.29-.05.84,0,1.61.05,2.32.17.71.11,1.3.26,1.79.46.74.29,1.32.71,1.74,1.26.42.55.63,1.22.63,2.02,0,.84-.27,1.58-.8,2.23-.53.65-1.14,1.09-1.82,1.32v.12c.56.05,1.1.18,1.63.4.53.22.99.52,1.39.92.35.35.61.74.79,1.16.18.42.27.94.27,1.56Zm-2.08.06c0-.42-.07-.79-.22-1.12-.15-.33-.37-.65-.66-.95-.28-.28-.66-.5-1.14-.67-.48-.17-1.01-.26-1.58-.26-.46,0-.82,0-1.1.01-.28,0-.47.01-.56.01l-.2-1.46c.6-.02,1.13-.09,1.59-.21.46-.13.87-.31,1.23-.57.34-.24.62-.56.84-.93.22-.38.33-.8.33-1.28,0-.5-.12-.93-.37-1.29-.24-.36-.58-.65-1-.86-.36-.17-.8-.3-1.32-.38-.52-.09-1.08-.13-1.67-.13-.38,0-.73,0-1.05.02-.32.01-.53.02-.62.02-.02,1.19-.04,2.45-.04,3.78,0,1.33,0,2.3,0,2.91,0,1.4,0,2.81.02,4.22.01,1.41.02,2.17.02,2.26.16,0,.38.02.65.03.27.01.53.02.79.02.93,0,1.8-.05,2.6-.15s1.48-.3,2.03-.61c.45-.25.81-.58,1.05-.99.25-.41.37-.88.37-1.43Z"/>
        <path class="d" d="m133.13,21.08c-.07.08-.87,1.09-2.42,3.04-1.55,1.95-2.79,3.52-3.74,4.71-.02,1.47-.01,3.02,0,4.64.02,1.62.03,2.67.04,3.16h-2.01c.02-.49.03-1.56.05-3.2.02-1.65.02-3.13.01-4.45-.99-1.31-2.22-2.9-3.69-4.75-1.46-1.86-2.25-2.86-2.37-3l1.6-1.22c.11.14.75.99,1.92,2.56,1.17,1.57,2.36,3.13,3.55,4.68h.02c1.15-1.47,2.35-3.03,3.61-4.66,1.26-1.63,1.92-2.49,1.99-2.58l1.42,1.07Z"/>
        <path class="d" d="m148.7,35.65l-1.53,1.26c-.18-.19-.81-.89-1.9-2.12-1.09-1.23-2.77-3.14-5.04-5.74v-.11c.32-.08.73-.26,1.25-.53.51-.27.94-.57,1.29-.89.3-.28.56-.62.79-1.03.22-.41.34-.95.34-1.64,0-.63-.17-1.17-.49-1.62-.33-.45-.78-.78-1.36-1-.47-.18-.97-.29-1.49-.32-.52-.04-1-.06-1.44-.06-.29,0-.52,0-.67,0-.15,0-.27,0-.34,0-.02,1.55-.03,2.91-.03,4.09,0,1.18,0,2.02,0,2.5,0,1.12,0,2.63.02,4.54.01,1.91.02,3.12.03,3.6h-2.01c0-.49.02-1.43.04-2.84.02-1.4.02-3.15.02-5.24v-2.26c0-1.1-.02-3.1-.06-6.01.08,0,.49,0,1.22-.02.73-.02,1.41-.02,2.02-.02.71,0,1.39.04,2.06.12s1.32.26,1.95.52c.8.34,1.44.84,1.91,1.51.47.66.71,1.44.71,2.34,0,1.16-.36,2.12-1.07,2.89-.71.77-1.38,1.34-2.02,1.71v.06c1.12,1.3,2.34,2.65,3.67,4.03,1.33,1.39,2.05,2.13,2.14,2.24Z"/>
        <path class="d" d="m153.98,36.63h-2.01c0-.49.02-1.36.04-2.61.02-1.25.02-3.05.02-5.4,0-.93,0-2.14-.01-3.65,0-1.51-.02-3.07-.05-4.69h2.01c-.02,1.16-.03,2.52-.04,4.06-.01,1.54-.02,2.8-.02,3.78,0,2.47,0,4.39.02,5.74.02,1.35.03,2.28.04,2.76Z"/>
        <path class="d" d="m173.75,20.28c-.02,1.28-.03,2.74-.04,4.38-.01,1.64-.02,2.83-.02,3.55,0,2.31,0,4.15.02,5.51.02,1.36.02,2.09.02,2.18l-1.62.79c-2.46-3.32-4.75-6.32-6.89-8.99-2.14-2.67-3.37-4.22-3.7-4.63h-.02c0,2.19.01,4.87.04,8.05.03,3.18.05,5.01.06,5.5h-1.9c0-.2.02-.93.04-2.17.02-1.25.02-2.98.02-5.2,0-.89,0-2.06-.01-3.53,0-1.47-.02-3.02-.05-4.67l1.86-.88c.15.19,1.39,1.77,3.74,4.75,2.35,2.98,4.56,5.74,6.63,8.3h.02c0-1.26-.02-3.37-.05-6.34-.03-2.96-.05-5.16-.05-6.59h1.9Z"/>
        <path class="d" d="m190.72,22.01c-.13,0-.68,0-1.64-.01-.96,0-2.41-.01-4.36-.01-.02,1.67-.03,2.94-.04,3.8,0,.86-.01,2.04-.01,3.53s0,2.89.02,4.37c.01,1.48.02,2.46.03,2.95h-2.01c.02-.49.03-1.49.04-2.99.01-1.51.02-2.98.02-4.42v-3.38c0-.83-.01-2.12-.04-3.85-1.73,0-3.14,0-4.22,0-1.08.01-1.67.02-1.78.02v-1.68c.84,0,1.86,0,3.06.01,1.2,0,2.48.01,3.84.01,1.97,0,3.62,0,4.94-.01,1.32,0,2.04-.01,2.14-.01v1.68Z"/>
        <path class="d" d="m213.77,36.63h-2.01c0-.49.02-1.39.03-2.7.01-1.31.02-2.95.02-4.91-.12,0-.85,0-2.17,0-1.33,0-2.32,0-2.99,0-.81,0-1.77,0-2.9,0-1.13,0-1.74,0-1.84,0,0,2.26,0,3.98.02,5.14.01,1.16.02,1.99.03,2.48h-2.01c0-.49.02-1.35.04-2.6.02-1.25.02-3.35.02-6.31,0-.9,0-1.99-.02-3.27-.01-1.29-.03-2.67-.04-4.16h2.01c0,1.24,0,2.45-.02,3.64-.02,1.19-.02,2.33-.02,3.4.1,0,.63,0,1.59,0,.96,0,2.02,0,3.16,0,.88,0,1.94,0,3.17,0,1.24,0,1.9,0,1.98,0,0-1.07,0-2.21-.02-3.39-.02-1.19-.02-2.4-.02-3.65h2.01c-.02,1.23-.03,2.65-.04,4.26-.01,1.61-.02,2.93-.02,3.94,0,2.39,0,4.23.02,5.5.02,1.27.03,2.15.04,2.64Z"/>
        <path class="d" d="m229.84,36.6c-.07,0-.61,0-1.62-.01-1.01,0-2.26-.01-3.75-.01-1.03,0-1.98,0-2.84.01-.86,0-1.59.01-2.18.01.02-.47.03-1.49.04-3.06.01-1.57.02-3.19.02-4.87,0-.92,0-2.14-.01-3.65,0-1.51-.02-3.08-.05-4.7.58,0,1.3,0,2.17.01.87,0,1.76.01,2.68.01,1.55,0,2.82,0,3.8-.01.98,0,1.51-.01,1.59-.01v1.7c-.08,0-.59,0-1.53-.02-.94-.01-2.11-.02-3.51-.02-.61,0-1.21,0-1.79,0-.59,0-1.05,0-1.39,0,0,.92,0,1.84-.02,2.75-.02.92-.02,1.78-.02,2.59.37,0,.8,0,1.3,0,.5,0,.95,0,1.34,0,1.43,0,2.71,0,3.84-.02,1.13-.01,1.73-.02,1.8-.02v1.68c-.07,0-.74,0-2.01-.02-1.28-.01-2.45-.02-3.5-.02-.39,0-.86,0-1.4,0-.54,0-.99,0-1.36,0,0,1.54,0,2.76.01,3.66,0,.9.02,1.66.02,2.27.48,0,1.06.01,1.75.02.68,0,1.42,0,2.21,0,1.21,0,2.23,0,3.06-.01.83,0,1.29-.01,1.39-.01v1.7Z"/>
        <path class="d" d="m244.94,36.6c-.07,0-.61,0-1.62-.01-1.01,0-2.26-.01-3.75-.01-1.03,0-1.98,0-2.84.01-.86,0-1.59.01-2.18.01.02-.47.03-1.49.04-3.06.01-1.57.02-3.19.02-4.87,0-.92,0-2.14-.01-3.65,0-1.51-.02-3.08-.05-4.7.58,0,1.3,0,2.17.01.87,0,1.76.01,2.68.01,1.55,0,2.82,0,3.8-.01.98,0,1.51-.01,1.59-.01v1.7c-.08,0-.59,0-1.53-.02-.94-.01-2.11-.02-3.51-.02-.61,0-1.21,0-1.79,0-.59,0-1.05,0-1.39,0,0,.92,0,1.84-.02,2.75-.02.92-.02,1.78-.02,2.59.37,0,.8,0,1.3,0,.5,0,.95,0,1.34,0,1.43,0,2.71,0,3.84-.02,1.13-.01,1.73-.02,1.8-.02v1.68c-.07,0-.74,0-2.01-.02-1.28-.01-2.45-.02-3.5-.02-.39,0-.86,0-1.4,0-.54,0-.99,0-1.36,0,0,1.54,0,2.76.01,3.66,0,.9.02,1.66.02,2.27.48,0,1.06.01,1.75.02.68,0,1.42,0,2.21,0,1.21,0,2.23,0,3.06-.01.83,0,1.29-.01,1.39-.01v1.7Z"/>
        <path class="d" d="m262.26,35.65l-1.53,1.26c-.18-.19-.81-.89-1.9-2.12-1.09-1.23-2.77-3.14-5.04-5.74v-.11c.32-.08.73-.26,1.25-.53.51-.27.94-.57,1.29-.89.3-.28.56-.62.79-1.03.22-.41.34-.95.34-1.64,0-.63-.17-1.17-.49-1.62-.33-.45-.78-.78-1.36-1-.47-.18-.97-.29-1.49-.32-.52-.04-1-.06-1.44-.06-.29,0-.52,0-.67,0-.15,0-.27,0-.34,0-.02,1.55-.03,2.91-.03,4.09,0,1.18,0,2.02,0,2.5,0,1.12,0,2.63.02,4.54.01,1.91.02,3.12.03,3.6h-2.01c0-.49.02-1.43.04-2.84.02-1.4.02-3.15.02-5.24v-2.26c0-1.1-.02-3.1-.06-6.01.08,0,.49,0,1.22-.02.73-.02,1.41-.02,2.02-.02.71,0,1.39.04,2.06.12s1.32.26,1.95.52c.8.34,1.44.84,1.91,1.51.47.66.71,1.44.71,2.34,0,1.16-.36,2.12-1.07,2.89-.71.77-1.38,1.34-2.02,1.71v.06c1.12,1.3,2.34,2.65,3.67,4.03,1.33,1.39,2.05,2.13,2.14,2.24Z"/>
        <path class="d" d="m275.51,36.6c-.1,0-.61,0-1.54-.01-.93,0-2.12-.01-3.57-.01-.95,0-1.86,0-2.72.01-.86,0-1.59.01-2.18.01.02-1.4.03-2.82.04-4.25.01-1.44.02-2.85.02-4.23,0-2.31,0-4.07-.02-5.29-.02-1.21-.03-2.06-.04-2.55h2.01c-.02,1.05-.03,2.26-.04,3.63,0,1.37-.01,2.5-.01,3.38,0,2.14,0,3.92.01,5.35,0,1.43.01,2.19.01,2.27.33,0,.74,0,1.21,0,.47,0,.9,0,1.28,0,1.46,0,2.72,0,3.8-.02,1.08-.01,1.65-.02,1.73-.02v1.71Z"/>
        <path class="d" d="m289.37,36.6c-.07,0-.61,0-1.62-.01-1.01,0-2.26-.01-3.75-.01-1.03,0-1.98,0-2.84.01-.86,0-1.59.01-2.18.01.02-.47.03-1.49.04-3.06.01-1.57.02-3.19.02-4.87,0-.92,0-2.14-.01-3.65,0-1.51-.02-3.08-.05-4.7.58,0,1.3,0,2.17.01.87,0,1.76.01,2.68.01,1.55,0,2.82,0,3.8-.01.98,0,1.51-.01,1.59-.01v1.7c-.08,0-.59,0-1.53-.02-.94-.01-2.11-.02-3.51-.02-.61,0-1.21,0-1.79,0-.59,0-1.05,0-1.39,0,0,.92,0,1.84-.02,2.75-.02.92-.02,1.78-.02,2.59.37,0,.8,0,1.3,0,.5,0,.95,0,1.34,0,1.43,0,2.71,0,3.84-.02,1.13-.01,1.73-.02,1.8-.02v1.68c-.07,0-.74,0-2.01-.02-1.28-.01-2.45-.02-3.5-.02-.39,0-.86,0-1.4,0-.54,0-.99,0-1.36,0,0,1.54,0,2.76.01,3.66,0,.9.02,1.66.02,2.27.48,0,1.06.01,1.75.02.68,0,1.42,0,2.21,0,1.21,0,2.23,0,3.06-.01.83,0,1.29-.01,1.39-.01v1.7Z"/>
        <path class="d" d="m308.14,20.28c-.02,1.28-.03,2.74-.04,4.38-.01,1.64-.02,2.83-.02,3.55,0,2.31,0,4.15.02,5.51.02,1.36.02,2.09.02,2.18l-1.62.79c-2.46-3.32-4.75-6.32-6.89-8.99-2.14-2.67-3.37-4.22-3.7-4.63h-.02c0,2.19.01,4.87.04,8.05.03,3.18.05,5.01.06,5.5h-1.9c0-.2.02-.93.04-2.17.02-1.25.02-2.98.02-5.2,0-.89,0-2.06-.01-3.53,0-1.47-.02-3.02-.05-4.67l1.86-.88c.15.19,1.39,1.77,3.74,4.75,2.35,2.98,4.56,5.74,6.63,8.3h.02c0-1.26-.02-3.37-.05-6.34-.03-2.96-.05-5.16-.05-6.59h1.9Z"/>
      </g>
      <g>
        <g>
          <path class="d" d="m27.84,55.74c-4.91,0-9.86-1.29-14.27-3.96l-1.41-.9,11.44-17.06c-3.06-2.27-3.83-6.58-1.69-9.77,1.07-1.59,2.69-2.68,4.58-3.05,1.88-.37,3.8.01,5.39,1.08,1.59,1.07,2.68,2.69,3.05,4.58.37,1.88-.01,3.8-1.08,5.39-1.24,1.86-3.22,3-5.44,3.17l-7.81,11.62.15.1c8.82,3.34,18.64.2,23.9-7.64,5.32-7.93,4.32-18.61-2.37-25.4l.49-.48c6.92,7.02,7.95,18.06,2.45,26.26-5.45,8.12-15.62,11.37-24.75,7.89l-.07-.04-.76-.51,1.15-1.67,7.24-10.79h.17c2.07-.11,3.93-1.16,5.08-2.88.97-1.44,1.31-3.17.98-4.88-.34-1.7-1.32-3.17-2.76-4.14-1.44-.97-3.17-1.31-4.88-.98-1.7.34-3.17,1.32-4.14,2.76-2,2.98-1.2,7.02,1.78,9.02l.28.19-11.43,17.04.81.52c10.88,6.57,25.07,4.59,33.72-4.72l.5.47c-5.36,5.77-12.8,8.79-20.31,8.79Z"/>
          <path class="d" d="m27.84,56.08c-5.11,0-10.11-1.39-14.45-4.01l-1.71-1.09,11.46-17.09c-3.01-2.44-3.69-6.78-1.51-10.04,1.12-1.67,2.82-2.8,4.79-3.19,1.97-.39,3.98.01,5.65,1.13,1.67,1.12,2.8,2.82,3.19,4.79.39,1.97-.01,3.98-1.13,5.65-1.27,1.89-3.28,3.09-5.53,3.3l-7.51,11.17c8.56,3.15,18.13.05,23.27-7.61,5.23-7.8,4.24-18.3-2.33-24.97l-.24-.24.98-.96.24.24c7.03,7.13,8.08,18.36,2.49,26.69-5.54,8.26-15.88,11.55-25.16,8.02l-.1-.05-1.08-.72,1.35-1.96,7.33-10.93.34-.02c1.97-.1,3.72-1.09,4.81-2.72.92-1.36,1.24-3.01.93-4.62-.32-1.61-1.25-3.01-2.61-3.92-1.37-.92-3.01-1.25-4.62-.93-1.61.32-3.01,1.25-3.92,2.61-1.89,2.82-1.13,6.65,1.69,8.54l.57.38-11.42,17.04.52.33c10.74,6.49,24.74,4.53,33.29-4.66l.23-.25,1,.93-.23.25c-5.26,5.66-12.76,8.9-20.56,8.9Zm-14.11-4.6h.02s-.02,0-.02,0Zm12.71-2.93c5.96.44,11.85-1.77,16.09-6.1-4.24,4.34-10.12,6.54-16.09,6.1Zm-6.33-1.62l.47.32c.76.29,1.53.53,2.3.73-.76-.19-1.52-.43-2.27-.71l-.5-.33.21-.32-.22.32Zm3.73-13.35l.22.16-6.76,10.09,6.77-10.09h0c-.07-.05-.15-.1-.22-.15Zm4.37,1.31h0s.17,0,.17,0c.17-.01.34-.03.51-.06-.22.03-.45.05-.67.07Zm-6.28-10.22c-1.63,2.85-1,6.45,1.49,8.58-2.47-2.12-3.12-5.73-1.49-8.58Zm20.82-10.77c3.58,3.76,5.49,8.64,5.63,13.58-.14-4.95-2.05-9.83-5.63-13.59h0Zm-9.85,9.51c.64.69,1.14,1.51,1.44,2.42-.31-.9-.8-1.72-1.44-2.42Zm-5.01-2.2c.62,0,1.24.08,1.83.25-.83-.23-1.71-.31-2.58-.21.25-.03.5-.04.75-.04Z"/>
        </g>
        <g>
          <path class="d" d="m53.24,39.2l-.63-.28c5.3-12,1.22-26.02-9.69-33.33C30.55-2.7,13.73.62,5.43,12.99c-.72,1.07-1.36,2.19-1.92,3.35l-.62-.3c.57-1.18,1.23-2.33,1.96-3.43C13.37-.08,30.62-3.48,43.31,5.03c11.19,7.5,15.37,21.87,9.94,34.18Z"/>
          <path class="d" d="m53.42,39.66l-1.25-.55.14-.31c5.23-11.85,1.2-25.69-9.57-32.91C30.51-2.31,13.91.96,5.71,13.18c-.71,1.05-1.34,2.16-1.89,3.3l-.15.31-1.23-.59.15-.31c.58-1.19,1.24-2.36,1.99-3.47C13.19-.43,30.65-3.87,43.5,4.74c11.33,7.59,15.56,22.15,10.06,34.6l-.14.31ZM3.99,14.69c-.11.19-.21.39-.32.58.1-.2.21-.39.32-.58Zm0-.01s0,0,0,.01c0,0,0,0,0-.01Z"/>
        </g>
        <g>
          <path class="d" d="m9.05,48.22l-.29-.29C.35,39.55-2.06,26.44,2.89,16.04l.62.29c-4.77,10.02-2.53,22.63,5.43,30.81l7.52-11.11c-2.65-3.43-3.37-7.5-2.09-11.81l.66.2c-1.24,4.16-.5,8.1,2.12,11.38l.16.2-8.26,12.21Z"/>
          <path class="d" d="m9.1,48.76l-.59-.58C0,39.69-2.43,26.42,2.59,15.9l.15-.31,1.24.59-.15.31c-4.63,9.72-2.53,22.05,5.08,30.12l7.14-10.55c-2.59-3.47-3.28-7.59-2-11.91l.1-.33,1.31.39-.1.33c-1.2,4.05-.49,7.88,2.06,11.07l.31.39-8.64,12.76Zm-.1-1.07s0,0,0,0l1.97-2.91-1.97,2.91ZM2.64,17.46c-4.09,9.97-1.65,22.1,6.17,30.05l-.11-.11C.99,39.46-1.41,27.34,2.64,17.46Zm14.15,18.46l.09.12h0s-.06-.08-.09-.12Z"/>
        </g>
        <g>
          <path class="d" d="m28.7,42.05l-.04-.68c4.2-.25,7.96-2.4,10.3-5.89,4.1-6.11,2.46-14.42-3.65-18.51-4.99-3.35-11.65-2.94-16.18,1l-.45-.52c4.76-4.14,11.76-4.57,17.01-1.06,6.42,4.31,8.15,13.04,3.84,19.46-2.46,3.67-6.41,5.93-10.83,6.19Z"/>
          <path class="d" d="m28.38,42.41l-.08-1.37.34-.02c4.1-.24,7.75-2.33,10.04-5.74,3.99-5.95,2.4-14.05-3.56-18.04-4.87-3.26-11.35-2.86-15.76.98l-.26.22-.9-1.03.26-.22c4.88-4.24,12.05-4.69,17.42-1.08,3.18,2.13,5.35,5.39,6.09,9.15.74,3.77-.02,7.6-2.16,10.78-2.52,3.76-6.56,6.07-11.09,6.34l-.34.02Zm13.01-16.53c.47,2.91,0,5.97-1.49,8.71,1.45-2.66,1.97-5.69,1.49-8.71Zm-5.3-8.79c2.65,1.98,4.39,4.78,5.1,7.81-.74-3.15-2.53-5.88-5.1-7.81Z"/>
        </g>
        <g>
          <path class="d" d="m10.69,39.9c-4.89-7.1-4.95-16.31-.15-23.48,5.5-8.2,16.1-11.44,25.23-7.7l-.26.63c-8.82-3.61-19.08-.48-24.4,7.45-4.65,6.93-4.59,15.84.15,22.71l-.56.39Z"/>
          <path class="d" d="m10.61,40.37l-.19-.28c-4.97-7.22-5.03-16.58-.15-23.86,5.59-8.33,16.37-11.63,25.64-7.83l.32.13-.52,1.27-.32-.13c-8.67-3.55-18.76-.47-23.98,7.32-4.57,6.81-4.51,15.57.14,22.32l.19.28-1.13.78Zm-2.59-17.56c-1.49,5.58-.56,11.61,2.77,16.61h0c-3.33-5-4.26-11.03-2.77-16.61ZM27.93,7.52c-5.48,0-10.84,2.2-14.74,6.19,5.67-5.8,14.41-7.81,22.13-4.8h0c-2.41-.94-4.91-1.39-7.39-1.39Z"/>
        </g>
        <g>
          <rect class="d" x="47.69" y="38.03" width=".68" height="6.84" transform="translate(-13.15 58.27) rotate(-56.16)"/>
          <path class="d" d="m50.78,44.12l-6.25-4.19.76-1.14,6.25,4.19-.76,1.14Zm-5.3-4.38l5.11,3.43h0s-5.11-3.43-5.11-3.43Z"/>
        </g>
        <g>
          <rect class="d" x="32.34" y="10.57" width="13.68" height=".68" transform="translate(8.3 37.37) rotate(-56.15)"/>
          <rect class="d" x="31.99" y="10.22" width="14.37" height="1.37" transform="translate(8.3 37.38) rotate(-56.17)"/>
        </g>
        <g>
          <rect class="d" x="16.25" y="13.64" width=".68" height="13.68" transform="translate(-9.66 22.86) rotate(-56.16)"/>
          <path class="d" d="m22.18,25.05l-11.93-8,.76-1.14,11.93,8-.76,1.14Zm-10.98-8.19l10.8,7.24-10.8-7.24Z"/>
        </g>
      </g>
    </g>
  </g>
</svg>